<?xml version="1.0" encoding="us-ascii" standalone="no"?><svg xmlns="http://www.w3.org/2000/svg" xmlns:xlink="http://www.w3.org/1999/xlink" contentStyleType="text/css" height="3904px" preserveAspectRatio="none" style="width:1002px;height:3904px;background:#FFFFFF;" version="1.1" viewBox="0 0 1002 3904" width="1002px" zoomAndPan="magnify"><defs/><g><!--cluster System--><g id="cluster_System"><rect fill="none" height="3891" rx="2.5" ry="2.5" style="stroke:#181818;stroke-width:1.0;" width="836" x="160" y="7"/><text fill="#000000" font-family="sans-serif" font-size="14" font-weight="bold" lengthAdjust="spacing" textLength="60" x="548" y="21.9951">System</text></g><g id="elem_UC1"><ellipse cx="578.1843" cy="2133.0369" fill="#F1F1F1" rx="165.6843" ry="35.5369" style="stroke:#181818;stroke-width:0.5;"/><text fill="#000000" font-family="sans-serif" font-size="14" lengthAdjust="spacing" textLength="299" x="430.6843" y="2135.8835">USBD01 - Elaborar um dicion&#225;rio de dados</text></g><g id="elem_UC2"><ellipse cx="577.7643" cy="2245.8529" fill="#F1F1F1" rx="199.7643" ry="42.3529" style="stroke:#181818;stroke-width:0.5;"/><text fill="#000000" font-family="sans-serif" font-size="14" lengthAdjust="spacing" textLength="369" x="395.2643" y="2248.6995">USBD02 - Elaborar o modelo relacional (nivel l&#243;gico)</text></g><g id="elem_UC3"><ellipse cx="578.2002" cy="2366.94" fill="#F1F1F1" rx="202.7002" ry="42.94" style="stroke:#181818;stroke-width:0.5;"/><text fill="#000000" font-family="sans-serif" font-size="14" lengthAdjust="spacing" textLength="375" x="392.7002" y="2369.7867">USBD03 - Instanciar o modelo relacional (nivel f&#237;sico)</text></g><g id="elem_UC4"><ellipse cx="577.8415" cy="2487.1683" fill="#F1F1F1" rx="196.3415" ry="41.6683" style="stroke:#181818;stroke-width:0.5;"/><text fill="#000000" font-family="sans-serif" font-size="14" lengthAdjust="spacing" textLength="362" x="398.8415" y="2490.015">USBD04 - Importar os dados de um sistema Legacy</text></g><g id="elem_UC5"><ellipse cx="577.7531" cy="96.8506" fill="#F1F1F1" rx="259.7531" ry="54.3506" style="stroke:#181818;stroke-width:0.5;"/><text fill="#000000" font-family="sans-serif" font-size="14" lengthAdjust="spacing" textLength="491" x="334.2531" y="99.6973">USBD05 - Listar a quantidade de produtos colhidos num dada parcela</text></g><g id="elem_UC6"><ellipse cx="577.8528" cy="247.9706" fill="#F1F1F1" rx="295.3528" ry="61.4706" style="stroke:#181818;stroke-width:0.5;"/><text fill="#000000" font-family="sans-serif" font-size="14" lengthAdjust="spacing" textLength="563" x="298.3528" y="250.8172">USBD06 - Listar o n&#250;mero de fatores de produ&#231;ao aplicados numa dada parcela</text></g><g id="elem_UC7"><ellipse cx="577.7659" cy="399.1532" fill="#F1F1F1" rx="258.7659" ry="54.1532" style="stroke:#181818;stroke-width:0.5;"/><text fill="#000000" font-family="sans-serif" font-size="14" lengthAdjust="spacing" textLength="489" x="335.2659" y="401.9999">USBD07 - Listar o n&#250;mero de opera&#231;oes realizadas num dada parcela</text></g><g id="elem_UC8"><ellipse cx="577.835" cy="535.167" fill="#F1F1F1" rx="221.335" ry="46.667" style="stroke:#181818;stroke-width:0.5;"/><text fill="#000000" font-family="sans-serif" font-size="14" lengthAdjust="spacing" textLength="409" x="373.335" y="538.0137">USBD08 - Mostrar fator de produ&#231;ao com mais aplica&#231;&#245;es</text></g><g id="elem_UC9"><ellipse cx="578.0851" cy="699.817" fill="#F1F1F1" rx="402.0851" ry="82.817" style="stroke:#181818;stroke-width:0.5;"/><text fill="#000000" font-family="sans-serif" font-size="14" lengthAdjust="spacing" textLength="778" x="191.0851" y="702.6637">USBD09 - Mostrar  o n&#250;mero de aplica&#231;&#245;es de cada tipo de fator de produ&#231;&#227;o aplicados na instala&#231;&#227;o agricula</text></g><g id="elem_UC10"><ellipse cx="578.2408" cy="866.2482" fill="#F1F1F1" rx="226.7408" ry="47.7482" style="stroke:#181818;stroke-width:0.5;"/><text fill="#000000" font-family="sans-serif" font-size="14" lengthAdjust="spacing" textLength="424" x="368.2408" y="869.0948">USBD10 - Saber qual a parcela com mais opera&#231;&#245;es de rega</text></g><g id="elem_UC11"><ellipse cx="578.0533" cy="988.9107" fill="#F1F1F1" rx="187.5533" ry="39.9107" style="stroke:#181818;stroke-width:0.5;"/><text fill="#000000" font-family="sans-serif" font-size="14" lengthAdjust="spacing" textLength="340" x="408.0533" y="991.7573">USBD11 - Registar uma opera&#231;&#227;o de semeadura</text></g><g id="elem_UC12"><ellipse cx="577.9557" cy="1100.9911" fill="#F1F1F1" rx="172.9557" ry="36.9911" style="stroke:#181818;stroke-width:0.5;"/><text fill="#000000" font-family="sans-serif" font-size="14" lengthAdjust="spacing" textLength="310" x="422.9557" y="1103.8378">USBD12 - Registar uma opera&#231;&#227;o de monda</text></g><g id="elem_UC13"><ellipse cx="577.7595" cy="1211.8519" fill="#F1F1F1" rx="179.7595" ry="38.3519" style="stroke:#181818;stroke-width:0.5;"/><text fill="#000000" font-family="sans-serif" font-size="14" lengthAdjust="spacing" textLength="320" x="415.7595" y="1214.6986">USBD13 - Registar uma opera&#231;&#227;o de colheita</text></g><g id="elem_UC14"><ellipse cx="577.7787" cy="1339.9557" fill="#F1F1F1" rx="257.7787" ry="53.9557" style="stroke:#181818;stroke-width:0.5;"/><text fill="#000000" font-family="sans-serif" font-size="14" lengthAdjust="spacing" textLength="483" x="336.2787" y="1342.8024">USBD14 - Registar uma opera&#231;&#227;o de aplica&#231;&#227;o de fator de produ&#231;&#227;o</text></g><g id="elem_UC15"><ellipse cx="578.1369" cy="1464.8274" fill="#F1F1F1" rx="167.1369" ry="35.8274" style="stroke:#181818;stroke-width:0.5;"/><text fill="#000000" font-family="sans-serif" font-size="14" lengthAdjust="spacing" textLength="298" x="429.1369" y="1467.6741">USBD15 - Registar uma opera&#231;&#227;o de poda</text></g><g id="elem_UC16"><ellipse cx="577.8002" cy="1574.06" fill="#F1F1F1" rx="178.3002" ry="38.06" style="stroke:#181818;stroke-width:0.5;"/><text fill="#000000" font-family="sans-serif" font-size="14" lengthAdjust="spacing" textLength="321" x="417.3002" y="1576.9067">USBD16 - Obter a lista dos produtos colhidos</text></g><g id="elem_UC17"><ellipse cx="578.0781" cy="1687.2156" fill="#F1F1F1" rx="186.5781" ry="39.7156" style="stroke:#181818;stroke-width:0.5;"/><text fill="#000000" font-family="sans-serif" font-size="14" lengthAdjust="spacing" textLength="338" x="409.0781" y="1690.0623">USBD17 - Obter a lista dos fatores de produ&#231;&#227;o</text></g><g id="elem_UC18"><ellipse cx="577.8078" cy="1794.1616" fill="#F1F1F1" rx="148.8078" ry="32.1616" style="stroke:#181818;stroke-width:0.5;"/><text fill="#000000" font-family="sans-serif" font-size="14" lengthAdjust="spacing" textLength="260" x="447.8078" y="1797.0082">USBD18 - Obter a lista de opera&#231;&#245;es</text></g><g id="elem_UC19"><ellipse cx="577.7745" cy="1908.8549" fill="#F1F1F1" rx="224.7745" ry="47.3549" style="stroke:#181818;stroke-width:0.5;"/><text fill="#000000" font-family="sans-serif" font-size="14" lengthAdjust="spacing" textLength="416" x="369.7745" y="1911.7016">USBD19 - Obter a lista de aplica&#231;&#245;es de fator de produ&#231;&#227;o</text></g><g id="elem_UC20"><ellipse cx="578.2325" cy="2027.2465" fill="#F1F1F1" rx="164.2325" ry="35.2465" style="stroke:#181818;stroke-width:0.5;"/><text fill="#000000" font-family="sans-serif" font-size="14" lengthAdjust="spacing" textLength="292" x="432.2325" y="2030.0932">USBD20 - Obter os totais de rega mensal</text></g><g id="elem_UC21"><ellipse cx="578.1831" cy="3056.9366" fill="#F1F1F1" rx="230.1831" ry="48.4366" style="stroke:#181818;stroke-width:0.5;"/><text fill="#000000" font-family="sans-serif" font-size="14" lengthAdjust="spacing" textLength="427" x="364.6831" y="3059.7833">USBD21 - Atualizar o modelo relacional (n&#237;vel l&#243;gico e f&#237;sico)</text></g><g id="elem_UC22"><ellipse cx="577.9522" cy="3174.9904" fill="#F1F1F1" rx="157.9522" ry="33.9904" style="stroke:#181818;stroke-width:0.5;"/><text fill="#000000" font-family="sans-serif" font-size="14" lengthAdjust="spacing" textLength="283" x="438.4522" y="3177.8371">USBD22 - Importar os dados atualizados</text></g><g id="elem_UC23"><ellipse cx="577.9099" cy="3285.082" fill="#F1F1F1" rx="193.4099" ry="41.082" style="stroke:#181818;stroke-width:0.5;"/><text fill="#000000" font-family="sans-serif" font-size="14" lengthAdjust="spacing" textLength="356" x="401.9099" y="3287.9287">USBD23 - Atualizar o dicion&#225;rio de dados/gloss&#225;rio</text></g><g id="elem_L1"><ellipse cx="577.8262" cy="3407.7652" fill="#F1F1F1" rx="221.8262" ry="46.7652" style="stroke:#181818;stroke-width:0.5;"/><text fill="#000000" font-family="sans-serif" font-size="14" lengthAdjust="spacing" textLength="414" x="372.8262" y="3410.6119">USLP01 - Elaborar o modelo de dom&#237;nio (n&#237;vel conceptual)</text></g><g id="elem_L2"><ellipse cx="578.2214" cy="3533.2443" fill="#F1F1F1" rx="201.7214" ry="42.7443" style="stroke:#181818;stroke-width:0.5;"/><text fill="#000000" font-family="sans-serif" font-size="14" lengthAdjust="spacing" textLength="373" x="393.7214" y="3536.091">USLP02 - Simular um controlador do sistema de rega</text></g><g id="elem_L3"><ellipse cx="578.1224" cy="3641.2245" fill="#F1F1F1" rx="141.6224" ry="30.7245" style="stroke:#181818;stroke-width:0.5;"/><text fill="#000000" font-family="sans-serif" font-size="14" lengthAdjust="spacing" textLength="249" x="455.6224" y="3644.0712">USLP03 - Consumir o plano de rega</text></g><g id="elem_L4"><ellipse cx="577.7652" cy="3742.053" fill="#F1F1F1" rx="163.2652" ry="35.053" style="stroke:#181818;stroke-width:0.5;"/><text fill="#000000" font-family="sans-serif" font-size="14" lengthAdjust="spacing" textLength="294" x="432.7652" y="3744.8997">USLP04 - Permitir a evoca&#231;&#227;o da US BD11</text></g><g id="elem_L5"><ellipse cx="577.7652" cy="3847.053" fill="#F1F1F1" rx="163.2652" ry="35.053" style="stroke:#181818;stroke-width:0.5;"/><text fill="#000000" font-family="sans-serif" font-size="14" lengthAdjust="spacing" textLength="294" x="432.7652" y="3849.8997">USLP05 - Permitir a evoca&#231;&#227;o da US BD12</text></g><g id="elem_L6"><ellipse cx="578.2488" cy="2599.1498" fill="#F1F1F1" rx="163.7488" ry="35.1498" style="stroke:#181818;stroke-width:0.5;"/><text fill="#000000" font-family="sans-serif" font-size="14" lengthAdjust="spacing" textLength="295" x="432.7488" y="2601.9964">USLP06 - Permitir a evoca&#231;&#227;o da US BD13</text></g><g id="elem_L7"><ellipse cx="577.7652" cy="2704.053" fill="#F1F1F1" rx="163.2652" ry="35.053" style="stroke:#181818;stroke-width:0.5;"/><text fill="#000000" font-family="sans-serif" font-size="14" lengthAdjust="spacing" textLength="294" x="432.7652" y="2706.8997">USLP07 - Permitir a evoca&#231;&#227;o da US BD14</text></g><g id="elem_L8"><ellipse cx="577.7652" cy="2809.053" fill="#F1F1F1" rx="163.2652" ry="35.053" style="stroke:#181818;stroke-width:0.5;"/><text fill="#000000" font-family="sans-serif" font-size="14" lengthAdjust="spacing" textLength="294" x="432.7652" y="2811.8997">USLP08 - Permitir a evoca&#231;&#227;o da US BD15</text></g><g id="elem_L9"><ellipse cx="577.8002" cy="2926.06" fill="#F1F1F1" rx="223.3002" ry="47.06" style="stroke:#181818;stroke-width:0.5;"/><text fill="#000000" font-family="sans-serif" font-size="14" lengthAdjust="spacing" textLength="417" x="371.3002" y="2928.9067">USLP09 - Atualizar o modelo de dom&#237;nio (n&#237;vel conceptual)</text></g><!--entity GA--><g id="elem_GA"><ellipse cx="61" cy="1127.5" fill="#FFC0CB" rx="8" ry="8" style="stroke:#FF0000;stroke-width:2.0;"/><path d="M61,1135.5 L61,1162.5 M48,1143.5 L74,1143.5 M61,1162.5 L48,1177.5 M61,1162.5 L74,1177.5 " fill="none" style="stroke:#FF0000;stroke-width:2.0;"/><text fill="#FF0000" font-family="sans-serif" font-size="14" lengthAdjust="spacing" textLength="110" x="6" y="1193.4951">Gestor Agr&#237;cula</text></g><!--entity PO--><g id="elem_PO"><ellipse cx="61" cy="2962.5" fill="#87CEEB" rx="8" ry="8" style="stroke:#0000FF;stroke-width:2.0;"/><path d="M61,2970.5 L61,2997.5 M48,2978.5 L74,2978.5 M61,2997.5 L48,3012.5 M61,2997.5 L74,3012.5 " fill="none" style="stroke:#0000FF;stroke-width:2.0;"/><text fill="#0000FF" font-family="sans-serif" font-size="14" lengthAdjust="spacing" textLength="106" x="8" y="3028.4951">Product Owner</text></g><!--link PO to UC1--><g id="link_PO_UC1"><path d="M63.5887,2952.463 C70.1691,2798.01 97.5331,2241.17 152,2186 C227.485,2109.54 347.1851,2101.9837 442.3431,2110.3637 " fill="none" id="PO-to-UC1" style="stroke:#181818;stroke-width:1.0;"/><polygon fill="#181818" points="448.32,2110.89,439.7056,2106.1159,443.3393,2110.4514,439.0038,2114.0851,448.32,2110.89" style="stroke:#181818;stroke-width:1.0;"/></g><!--link PO to UC2--><g id="link_PO_UC2"><path d="M64.4375,2952.312 C73.3627,2813.01 106.148,2352.3 152,2306 C216.426,2240.94 310.9181,2224.4749 398.0111,2224.9849 " fill="none" id="PO-to-UC2" style="stroke:#181818;stroke-width:1.0;"/><polygon fill="#181818" points="404.011,2225.02,395.0346,2220.9674,399.0111,2224.9907,394.9877,2228.9672,404.011,2225.02" style="stroke:#181818;stroke-width:1.0;"/></g><!--link PO to UC3--><g id="link_PO_UC3"><path d="M62.4626,2952.236 C64.682,2836.15 77.5407,2501.3 152,2428 C215.611,2365.38 306.7062,2348.0541 392.0412,2347.2841 " fill="none" id="PO-to-UC3" style="stroke:#181818;stroke-width:1.0;"/><polygon fill="#181818" points="398.041,2347.23,389.0053,2343.3114,393.0412,2347.2751,389.0775,2351.311,398.041,2347.23" style="stroke:#181818;stroke-width:1.0;"/></g><!--link PO to UC4--><g id="link_PO_UC4"><path d="M64.2946,2952.194 C70.8435,2853.48 93.096,2601.41 152,2546 C218.401,2483.54 312.436,2467.3044 398.775,2467.3844 " fill="none" id="PO-to-UC4" style="stroke:#181818;stroke-width:1.0;"/><polygon fill="#181818" points="404.775,2467.39,395.7787,2463.3817,399.775,2467.3854,395.7713,2471.3817,404.775,2467.39" style="stroke:#181818;stroke-width:1.0;"/></g><!--link GA to UC5--><g id="link_GA_UC5"><path d="M62.8087,1117.28 C66.7559,941.56 86.5452,239.7 152,169 C195.787,121.71 252.2955,99.0596 315.8645,88.5396 " fill="none" id="GA-to-UC5" style="stroke:#181818;stroke-width:1.0;"/><polygon fill="#181818" points="321.784,87.56,312.2517,85.0831,316.8511,88.3763,313.5578,92.9757,321.784,87.56" style="stroke:#181818;stroke-width:1.0;"/></g><!--link GA to UC6--><g id="link_GA_UC6"><path d="M63.5562,1117.46 C70.1035,960.32 97.6217,385.66 152,327 C186.948,289.3 227.8406,267.7211 277.4636,253.9811 " fill="none" id="GA-to-UC6" style="stroke:#181818;stroke-width:1.0;"/><polygon fill="#181818" points="283.246,252.38,273.505,250.9267,278.4273,253.7142,275.6397,258.6366,283.246,252.38" style="stroke:#181818;stroke-width:1.0;"/></g><!--link GA to UC7--><g id="link_GA_UC7"><path d="M61.2977,1117.47 C59.8187,985.63 62.3113,564.1 152,471 C196.456,424.85 252.802,402.5145 315.986,391.8945 " fill="none" id="GA-to-UC7" style="stroke:#181818;stroke-width:1.0;"/><polygon fill="#181818" points="321.903,390.9,312.3645,388.4471,316.9722,391.7288,313.6905,396.3365,321.903,390.9" style="stroke:#181818;stroke-width:1.0;"/></g><!--link GA to UC8--><g id="link_GA_UC8"><path d="M62.5616,1117.27 C65.0543,1002.1 78.5905,671.65 152,599 C209.28,542.32 287.8807,522.4104 366.5437,517.9404 " fill="none" id="GA-to-UC8" style="stroke:#181818;stroke-width:1.0;"/><polygon fill="#181818" points="372.534,517.6,363.3216,514.117,367.5421,517.8837,363.7754,522.1042,372.534,517.6" style="stroke:#181818;stroke-width:1.0;"/></g><!--link GA to UC9--><g id="link_GA_UC9"><path d="M66.8447,1117.28 C77.7957,1034.04 107.055,845.31 152,801 C176.304,777.04 199.7555,760.9101 230.8705,746.4401 " fill="none" id="GA-to-UC9" style="stroke:#181818;stroke-width:1.0;"/><polygon fill="#181818" points="236.311,743.91,226.4636,744.0781,231.7773,746.0184,229.837,751.3321,236.311,743.91" style="stroke:#181818;stroke-width:1.0;"/></g><!--link GA to UC10--><g id="link_GA_UC10"><path d="M65.9548,1117.26 C73.336,1065.72 94.152,977 152,931 C208.744,885.88 277.6413,866.2897 348.7053,858.5497 " fill="none" id="GA-to-UC10" style="stroke:#181818;stroke-width:1.0;"/><polygon fill="#181818" points="354.67,857.9,345.2898,854.898,349.6994,858.4414,346.156,862.851,354.67,857.9" style="stroke:#181818;stroke-width:1.0;"/></g><!--link GA to UC11--><g id="link_GA_UC11"><path d="M83.5638,1117.31 C99.1881,1092.59 122.684,1062.45 152,1046 C224.062,1005.56 307.5475,989.8717 385.7845,984.6217 " fill="none" id="GA-to-UC11" style="stroke:#181818;stroke-width:1.0;"/><polygon fill="#181818" points="391.771,984.22,382.5234,980.8316,386.7822,984.5548,383.059,988.8136,391.771,984.22" style="stroke:#181818;stroke-width:1.0;"/></g><!--link GA to UC12--><g id="link_GA_UC12"><path d="M116.141,1151.11 C188.451,1143.25 313.5372,1129.6486 417.4552,1118.3486 " fill="none" id="GA-to-UC12" style="stroke:#181818;stroke-width:1.0;"/><polygon fill="#181818" points="423.42,1117.7,414.0403,1114.6964,418.4493,1118.2405,414.9052,1122.6495,423.42,1117.7" style="stroke:#181818;stroke-width:1.0;"/></g><!--link GA to UC13--><g id="link_GA_UC13"><path d="M116.141,1162.78 C186.901,1170.34 307.9459,1183.2627 410.7369,1194.2427 " fill="none" id="GA-to-UC13" style="stroke:#181818;stroke-width:1.0;"/><polygon fill="#181818" points="416.703,1194.88,408.1788,1189.9467,411.7313,1194.3489,407.3291,1197.9014,416.703,1194.88" style="stroke:#181818;stroke-width:1.0;"/></g><!--link GA to UC14--><g id="link_GA_UC14"><path d="M83.9295,1196.63 C99.633,1221.16 123.08,1251.11 152,1268 C204.423,1298.62 260.3964,1315.9988 320.4714,1326.8988 " fill="none" id="GA-to-UC14" style="stroke:#181818;stroke-width:1.0;"/><polygon fill="#181818" points="326.375,1327.97,318.2337,1322.4275,321.4553,1327.0774,316.8055,1330.299,326.375,1327.97" style="stroke:#181818;stroke-width:1.0;"/></g><!--link GA to UC15--><g id="link_GA_UC15"><path d="M63.7501,1196.9 C68.5742,1254.05 86.4316,1358.16 152,1411 C229.53,1473.48 336.202,1485.5709 426.055,1482.7109 " fill="none" id="GA-to-UC15" style="stroke:#181818;stroke-width:1.0;"/><polygon fill="#181818" points="432.052,1482.52,422.9293,1478.8083,427.0545,1482.6791,423.1838,1486.8043,432.052,1482.52" style="stroke:#181818;stroke-width:1.0;"/></g><!--link GA to UC16--><g id="link_GA_UC16"><path d="M66.3055,1196.67 C76.3354,1281.29 104.1146,1475.26 152,1518 C224.87,1583.05 328.7367,1596.301 418.5067,1593.591 " fill="none" id="GA-to-UC16" style="stroke:#181818;stroke-width:1.0;"/><polygon fill="#181818" points="424.504,1593.41,415.3874,1589.6834,419.5063,1593.5609,415.6288,1597.6797,424.504,1593.41" style="stroke:#181818;stroke-width:1.0;"/></g><!--link GA to UC17--><g id="link_GA_UC17"><path d="M63.8043,1196.84 C69.3226,1299.62 89.5852,1569.8 152,1629 C221.427,1694.86 322.2386,1709.3466 411.4106,1707.3166 " fill="none" id="GA-to-UC17" style="stroke:#181818;stroke-width:1.0;"/><polygon fill="#181818" points="417.409,1707.18,408.3203,1703.3859,412.4103,1707.2938,408.5024,1711.3838,417.409,1707.18" style="stroke:#181818;stroke-width:1.0;"/></g><!--link GA to UC18--><g id="link_GA_UC18"><path d="M62.0988,1196.76 C63.2776,1316.18 73.4739,1668.18 152,1744 C233.371,1822.57 362.3135,1826.0311 458.2965,1815.3911 " fill="none" id="GA-to-UC18" style="stroke:#181818;stroke-width:1.0;"/><polygon fill="#181818" points="464.26,1814.73,454.8741,1811.746,459.2904,1815.2809,455.7555,1819.6973,464.26,1814.73" style="stroke:#181818;stroke-width:1.0;"/></g><!--link GA to UC19--><g id="link_GA_UC19"><path d="M64.4598,1196.67 C73.4605,1335.89 106.469,1796.38 152,1843 C207.433,1899.76 284.0742,1920.3724 361.7762,1925.5324 " fill="none" id="GA-to-UC19" style="stroke:#181818;stroke-width:1.0;"/><polygon fill="#181818" points="367.763,1925.93,359.0478,1921.3424,362.774,1925.5987,358.5177,1929.3249,367.763,1925.93" style="stroke:#181818;stroke-width:1.0;"/></g><!--link GA to UC20--><g id="link_GA_UC20"><path d="M63.5263,1196.54 C69.9147,1352.34 96.7777,1917.98 152,1974 C227.95,2051.05 348.8796,2058.1724 444.2836,2049.5124 " fill="none" id="GA-to-UC20" style="stroke:#181818;stroke-width:1.0;"/><polygon fill="#181818" points="450.259,2048.97,440.9342,2045.8,445.2795,2049.422,441.6575,2053.7672,450.259,2048.97" style="stroke:#181818;stroke-width:1.0;"/></g><!--link PO to UC21--><g id="link_PO_UC21"><path d="M114.215,2998.59 C176.546,3006.457 278.4652,3019.3207 374.3882,3031.4277 " fill="none" id="PO-to-UC21" style="stroke:#181818;stroke-width:1.0;"/><polygon fill="#181818" points="380.341,3032.179,371.9127,3027.0835,375.3804,3031.5529,370.911,3035.0205,380.341,3032.179" style="stroke:#181818;stroke-width:1.0;"/></g><!--link PO to UC22--><g id="link_PO_UC22"><path d="M78.1929,3031.581 C92.7927,3061.89 117.32,3101.962 152,3123 C234.303,3172.929 336.0941,3185.6236 422.5241,3186.0046 " fill="none" id="PO-to-UC22" style="stroke:#181818;stroke-width:1.0;"/><polygon fill="#181818" points="428.524,3186.031,419.5417,3181.9914,423.524,3186.009,419.5065,3189.9913,428.524,3186.031" style="stroke:#181818;stroke-width:1.0;"/></g><!--link PO to UC23--><g id="link_PO_UC23"><path d="M65.237,3031.868 C71.8422,3085.11 91.8212,3178.246 152,3226 C220.127,3280.06 308.5108,3296.8996 391.0308,3299.4226 " fill="none" id="PO-to-UC23" style="stroke:#181818;stroke-width:1.0;"/><polygon fill="#181818" points="397.028,3299.606,388.1544,3295.3328,392.0303,3299.4532,387.91,3303.3291,397.028,3299.606" style="stroke:#181818;stroke-width:1.0;"/></g><!--link PO to L1--><g id="link_PO_L1"><path d="M66.6966,3031.764 C77.3136,3114.561 105.8898,3301.253 152,3343 C209.27,3394.851 283.7194,3414.9182 359.2224,3421.0012 " fill="none" id="PO-to-L1" style="stroke:#181818;stroke-width:1.0;"/><polygon fill="#181818" points="365.203,3421.483,356.5533,3416.7732,360.2191,3421.0815,355.9108,3424.7473,365.203,3421.483" style="stroke:#181818;stroke-width:1.0;"/></g><!--link PO to L2--><g id="link_PO_L2"><path d="M63.6843,3031.728 C68.947,3135.592 88.7124,3411.364 152,3472 C216.185,3533.496 306.7935,3550.8594 391.6905,3551.9434 " fill="none" id="PO-to-L2" style="stroke:#181818;stroke-width:1.0;"/><polygon fill="#181818" points="397.69,3552.02,388.7418,3547.9054,392.6904,3551.9562,388.6397,3555.9048,397.69,3552.02" style="stroke:#181818;stroke-width:1.0;"/></g><!--link PO to L3--><g id="link_PO_L3"><path d="M61.926,3031.849 C62.5874,3153.3 71.409,3515.273 152,3593 C235.778,3673.8 370.348,3674.4055 466.715,3662.1415 " fill="none" id="PO-to-L3" style="stroke:#181818;stroke-width:1.0;"/><polygon fill="#181818" points="472.667,3661.384,463.234,3658.5522,467.707,3662.0152,464.244,3666.4882,472.667,3661.384" style="stroke:#181818;stroke-width:1.0;"/></g><!--link PO to L4--><g id="link_PO_L4"><path d="M64.3341,3031.861 C72.9676,3172.881 105.04,3642.244 152,3689 C228.272,3764.941 348.1905,3772.4671 443.2075,3764.2151 " fill="none" id="PO-to-L4" style="stroke:#181818;stroke-width:1.0;"/><polygon fill="#181818" points="449.185,3763.696,439.8727,3760.4897,444.2038,3764.1286,440.5648,3768.4597,449.185,3763.696" style="stroke:#181818;stroke-width:1.0;"/></g><!--link PO to L5--><g id="link_PO_L5"><path d="M63.6073,3031.657 C70.2353,3185.913 97.6892,3740.136 152,3795 C228.352,3872.1295 349.8756,3878.7613 445.3466,3869.7346 " fill="none" id="PO-to-L5" style="stroke:#181818;stroke-width:1.0;"/><polygon fill="#181818" points="451.32,3869.1698,441.9834,3866.0347,446.3422,3869.6404,442.7365,3873.9992,451.32,3869.1698" style="stroke:#181818;stroke-width:1.0;"/></g><!--link PO to L6--><g id="link_PO_L6"><path d="M66.8953,2952.328 C77.754,2871.21 106.549,2690.64 152,2651 C230.428,2582.59 344.1926,2573.0868 436.6156,2578.8468 " fill="none" id="PO-to-L6" style="stroke:#181818;stroke-width:1.0;"/><polygon fill="#181818" points="442.604,2579.22,433.8702,2574.6679,437.6137,2578.909,433.3726,2582.6524,442.604,2579.22" style="stroke:#181818;stroke-width:1.0;"/></g><!--link PO to L7--><g id="link_PO_L7"><path d="M64.9611,2952.115 C71.2539,2898.34 90.8804,2803.84 152,2756 C231.463,2693.8 340.1626,2682.7161 430.3796,2686.2361 " fill="none" id="PO-to-L7" style="stroke:#181818;stroke-width:1.0;"/><polygon fill="#181818" points="436.375,2686.47,427.5378,2682.1222,431.3788,2686.2751,427.2259,2690.1161,436.375,2686.47" style="stroke:#181818;stroke-width:1.0;"/></g><!--link PO to L8--><g id="link_PO_L8"><path d="M78.1929,2952.419 C92.7927,2922.11 117.32,2882.04 152,2861 C232.476,2812.18 331.3203,2798.9946 416.7373,2798.0746 " fill="none" id="PO-to-L8" style="stroke:#181818;stroke-width:1.0;"/><polygon fill="#181818" points="422.737,2798.01,413.6944,2794.1072,417.7373,2798.0639,413.7806,2802.1067,422.737,2798.01" style="stroke:#181818;stroke-width:1.0;"/></g><!--link PO to L9--><g id="link_PO_L9"><path d="M114.215,2985.308 C177.953,2977.14 283.3577,2963.6317 380.8637,2951.1357 " fill="none" id="PO-to-L9" style="stroke:#181818;stroke-width:1.0;"/><polygon fill="#181818" points="386.815,2950.373,377.3795,2947.5495,381.8556,2951.0086,378.3965,2955.4846,386.815,2950.373" style="stroke:#181818;stroke-width:1.0;"/></g><!--SRC=[ZPRDRjms4CVl-nG3vv3suDRKVZT02ySjWW9RsCXY7u0hqHiY5AcIL5gtwCCKFlZaKz5BhdgnpkY3uiRqkdlHhAJ_RsR8cQ6KkFNW3LXv-E2Xa5RaNXezuRat5ixU2KVNouDj7lDQyJFW3jvT0hogfFxuHaajlhEYQ8rlzaOLRxputTEjWN1ZJL7d7gv_qyAsyfjhmD-hxSUxjweM7MC_M164xateHp5nVL02jdVEYnB-d12XTYBdJi0PxBPlVxnWS0u_ARutbbkeIymbnqIQlwqqK0WeU65SwtztnLBwBDORA4qX5AwBK9muNC5NMduI2bJppq7cvkkUbQLOKsJzh1r6dSlJjDlcqKMqQOes8rfP6Uk9vRfKA2VCqabQ4GuRSU3vNK-PfIXpf6pmRMHm-BNcsai42U9Kj4SUcRbH7oJ1DIqWBpXKtEQYt_VTrJm5NenW0xhvN0hRhlWjnm8GBZXe7hW1NYcPyzu5J_bOf7mid_5XAc5vys3GZHLSoJ-GzspqonHvXUHVZFEqwst4n_7cfeIIIzS7tZmq_wAl7hXA0TSHy3ZO8mJ-pob4BwjnjIBVpVtHOd6GL4-AzqyELeP-t5sj4u6m2mnao_V2qcuh2AinvjIltX2FnHeQEkGYHQGMUoyEtJxGzWs0-pO59qh1YzhoONrOgj5OTffI6bsCX5HxiUbf0bMna9v3eAJQYirEKy9ktJ-xFmC-rMziVXfVcIZBL5ynwglhlHVKhuemG9Nmj5S7IAfns389UTgQSJgfFc6hfo1nL423EjKKR9rIVzaFfvOuLU7PHQ1YJjvugkc-Zg4Ksc7L3rCwLSyPrVEbhzkvyToKRXwZeGyY3En0JjLubYL7DkzzZITHbghlRFf5NAcZxDk3CiwrzmRMqohVt1mVYo55efYoUTH877BCZSv5HMwxqsZ3KZpAR2jBd3tjAOiYRut2Y73dJ3YEuccooL8Sol7AQ5UNakAg5DVcM9PCXvhsHjXIUacr93wPqACStm2QKfrybfBFNvPddNoUaYzUbayx-I8bNxuidtNoPKg-Uba-x-Ihb7oThlR_LGfh-Wv395t-choMPQLms6iFs2Dr3aPZZUAPnCiV9gztshPZJ-1N8EoSi1FyuZi__xxzy0fcDfhJqPnDyEEoC-UZkHZDvMYkHdCzcdXoZJQBx2oofv4TkMIHJnOvPP5N5hbbaL-SC6DkSPvHebd8T1FUs8Jdc_7fB5ZpO2s2jGpMAbZh_m00]--></g></svg>